<svg xmlns="http://www.w3.org/2000/svg" viewBox="0 0 2567.78 1273.77"><defs><style>.cls-1{fill:#2a4e96;}.cls-2{fill:#12253f;}.cls-3{fill:#994d3c;}.cls-4{fill:#bc5f46;}.cls-5{fill:#233862;}.cls-6{fill:#191e30;}.cls-7{fill:#e26f47;}.cls-8{fill:#f77d48;}.cls-9{fill:#fff;}.cls-10{fill:#8c9df4;}.cls-11{fill:#2b478b;}.cls-12{fill:#aa5943;}.cls-13{fill:#ffb27d;}.cls-14{fill:#163560;}.cls-15{fill:#ed975d;}.cls-16{fill:#aec3ff;}.cls-17{fill:#8faef2;}.cls-18{fill:#474fea;}.cls-19{fill:#f96058;}.cls-20{fill:#0c1b2d;}.cls-21{opacity:0.5;}.cls-22{fill:#13243d;}.cls-23{fill:#8caaea;}.cls-24{fill:#fdfeff;}.cls-25{fill:#c1514c;}.cls-26{fill:#060633;}.cls-27{fill:#2c3a64;}.cls-28{fill:#e8945b;}.cls-29{fill:#ea9f6c;}.cls-30{fill:#e3f2ff;}.cls-31{fill:#233f77;}</style></defs><title>Illustration watch</title><g id="Layer_2" data-name="Layer 2"><g id="_Layer_" data-name="&lt;Layer&gt;"><path class="cls-1" d="M2564.23,1010c-9.81,56.81-43.9,124.28-114.71,206.49H159.71S25.81,1145.57,4.59,1010C-5,948.53-4.36,805.91,55.25,718.47,229.4,463,262,571.87,314.54,209.54c43.3-298.36,446.11-229.9,825.76-90.67,342.15,125.48,440.23-20.29,712.33-23,466.21-4.57,656.53,294.23,537.18,451.72C2255.62,724.74,2606.48,765.55,2564.23,1010Z"/><rect class="cls-2" x="430.84" y="332.8" width="1599.97" height="208.88"/><rect class="cls-2" x="618.97" y="668.48" width="1271.42" height="118.12"/><rect class="cls-3" x="923.33" y="252.73" width="308.39" height="420.56" rx="42.15" ry="42.15"/><rect class="cls-2" x="1216.99" y="529.74" width="78.3" height="41.58" rx="9.59" ry="9.59" transform="translate(2512.28 1101.06) rotate(180)"/><rect class="cls-2" x="1230.49" y="557.06" width="52.54" height="130.76" transform="translate(2513.53 1244.88) rotate(180)"/><rect class="cls-2" x="876.21" y="687.82" width="406.82" height="38.41"/><rect class="cls-4" x="894.79" y="609.42" width="357.34" height="88.97" rx="13.66" ry="13.66"/><rect class="cls-3" x="532.55" y="252.73" width="262.31" height="420.56" rx="38.87" ry="38.87"/><rect class="cls-2" x="475.32" y="529.74" width="75.47" height="41.58" rx="9.41" ry="9.41"/><rect class="cls-2" x="487.13" y="557.06" width="50.64" height="130.76"/><rect class="cls-2" x="813.82" y="541.68" width="109.51" height="146.14" transform="translate(1737.14 1229.5) rotate(180)"/><rect class="cls-2" x="487.13" y="687.82" width="392.14" height="38.41"/><rect class="cls-4" x="505.05" y="609.42" width="289.82" height="88.97" rx="12.3" ry="12.3"/><rect class="cls-3" x="1323.72" y="252.73" width="308.39" height="420.56" rx="42.15" ry="42.15"/><rect class="cls-2" x="1264.35" y="529.74" width="78.3" height="41.58" rx="9.59" ry="9.59"/><rect class="cls-2" x="1276.61" y="557.06" width="52.54" height="130.76"/><rect class="cls-2" x="1276.61" y="687.82" width="406.82" height="38.41"/><rect class="cls-4" x="1295.19" y="609.42" width="357.34" height="88.97" rx="13.66" ry="13.66"/><rect class="cls-3" x="1717.93" y="252.73" width="308.39" height="420.56" rx="42.15" ry="42.15"/><rect class="cls-2" x="1632.12" y="520.1" width="108.36" height="167.72"/><rect class="cls-2" x="2011.59" y="529.74" width="78.3" height="41.58" rx="9.59" ry="9.59" transform="translate(4101.47 1101.06) rotate(180)"/><rect class="cls-2" x="2025.09" y="557.06" width="52.54" height="130.76" transform="translate(4102.73 1244.88) rotate(180)"/><rect class="cls-2" x="1670.81" y="687.82" width="406.82" height="38.41"/><rect class="cls-4" x="1689.39" y="609.42" width="357.34" height="88.97" rx="13.66" ry="13.66"/><path class="cls-5" d="M2564.23,1010c-9.81,68.58-43.9,150-114.71,249.27H159.71S25.81,1173.66,4.59,1010Z"/><rect class="cls-6" x="68.11" y="1252.58" width="2458.77" height="21.19" rx="5.02" ry="5.02"/><rect class="cls-7" x="1016.45" y="314.96" width="494.29" height="638.26" rx="65.74" ry="65.74"/><rect class="cls-2" x="940.93" y="728.64" width="84.21" height="246.62"/><rect class="cls-2" x="1510.74" y="728.98" width="84.21" height="266.07" transform="translate(3105.68 1724.04) rotate(180)"/><rect class="cls-2" x="940.93" y="975.27" width="652.05" height="58.3"/><rect class="cls-8" x="970.72" y="856.29" width="572.73" height="135.03" rx="21.3" ry="21.3"/><polygon class="cls-9" points="884.65 597.53 878.32 597.25 880.78 540.55 908.14 522.91 911.58 528.24 886.97 544.1 884.65 597.53"/><polygon class="cls-10" points="840.97 729.76 899.19 729.76 906.06 596.15 835.34 596.15 840.97 729.76"/><rect class="cls-9" x="829.88" y="588.74" width="82.85" height="15.02" transform="translate(1742.61 1192.5) rotate(180)"/><path class="cls-7" d="M822.75,379.61V888.56a64.66,64.66,0,0,1-64.66,64.66H409.29a64.65,64.65,0,0,1-64.66-64.66V379.61A64.67,64.67,0,0,1,409.29,315h348.8A64.67,64.67,0,0,1,822.75,379.61Z"/><rect class="cls-2" x="820.84" y="723.29" width="128.35" height="310.27" transform="translate(1770.03 1756.86) rotate(180)"/><rect class="cls-11" x="799.91" y="673.73" width="121.39" height="60.39" rx="14.39" ry="14.39" transform="translate(1721.2 1407.85) rotate(180)"/><rect class="cls-2" x="271.59" y="975.27" width="630.71" height="58.3"/><rect class="cls-8" x="300.4" y="856.29" width="553.99" height="135.03" rx="20.95" ry="20.95"/><path class="cls-7" d="M2193.21,380.1v508a65.15,65.15,0,0,1-65.15,65.14H1773a65.1,65.1,0,0,1-65.14-65.14v-508A65.15,65.15,0,0,1,1773,315h355.1a65.13,65.13,0,0,1,65.15,65.15Z"/><rect class="cls-2" x="1586.16" y="735.36" width="130.2" height="298.2"/><rect class="cls-2" x="2170.02" y="678.96" width="123.24" height="75.03" rx="16.16" ry="16.16" transform="translate(4463.27 1432.94) rotate(180)"/><rect class="cls-2" x="2191.27" y="728.26" width="101.98" height="305.3" transform="translate(4484.53 1761.82) rotate(180)"/><rect class="cls-2" x="1633.67" y="975.27" width="640.3" height="58.3"/><path class="cls-12" d="M2193.21,703.85V639.48c8.15-1.89,13.7-3.41,14.73-4.41,1.95-1.88-5.54-14.15-14.73-28.9V397.8c-5.68-11.53-8-24.47-5.09-43A65.15,65.15,0,0,0,2128.06,315h-133.8c-24,51.2-33.29,111.11,1,133-5,4.12-8.63,8.82-10.12,14.12-3.76,13.36-19,56-33.75,96.29a144.56,144.56,0,0,1-60.54,73.55L1831,668.59c-15.22,4.44-39,12-42.41,17.08l-20.38,26.79s2.16,1.26,5.45-.61a23.69,23.69,0,0,0,3.64-2.81c-2.19,5.76-3.69,10.88-3.53,13.27.25,3.41,4.71-.83,9.46-6l-.13,5.71a10.36,10.36,0,0,0,4.51-3.64c1.14-1.46,2.47-6.27,3.51-10.73.71-.74,1.35-1.38,1.9-1.86,3.32-3,15.34-4.72,21.24-5.65l1.21-.22-.5.72c-28.07,25.27-69.1,87.69-107.18,151.48v35.93a65.18,65.18,0,0,0,50.62,63.51c21.66-20.18,41.74-40.05,54.37-55.16l18.38,48,3.32,8.82h83.19c-6.32-38.2-14.69-79.78-25-111.76-2.65-8.26-5.43-15.86-8.36-22.62,30.61,14.48,95.69,45.67,155.32,45.67,29.56,0,120.56.06,120.56.06s2.23,0,2.24,0c13.75-.22,21.82-6.73,25.87-16.9a104.72,104.72,0,0,0,4.87-15.82c5.11-22.46,3.92-47.52,0-71.09a371.6,371.6,0,0,0-14.59-57C2183.48,703.88,2188.37,703.9,2193.21,703.85Zm0-97.68c-1.39-2.22-2.8-4.47-4.23-6.78-.28,1.31-.54,2.58-.78,3.82a254.25,254.25,0,0,0-5,38.49c3.62-.78,7-1.53,10-2.22,8.15-1.89,13.7-3.41,14.73-4.41C2209.89,633.19,2202.4,620.92,2193.21,606.17Zm-196.69,29.14c-16.41,16.91-44.63,30-72.6,38.74a306.56,306.56,0,0,1-54,11.86c29.61,0,69.93,3.63,110.8,10.35a31.43,31.43,0,0,0,26-7.52C1999,685,1997.57,686.84,1996.52,635.31ZM1846.3,686.37a15,15,0,0,0-3.27,1c1.89-.25,3.89-.46,6-.65C1848,686.63,1847.13,686.52,1846.3,686.37Z"/><rect class="cls-8" x="1662.91" y="851.32" width="562.41" height="140" rx="21.49" ry="21.49"/><path class="cls-13" d="M1666.34,1078c-2.38,11.88-102.87-18.65-88.61-20.3,1.8-.2,3.6-.42,5.4-.64,16.11-2,27.9-12.42,42.53-21,13.86-8.08,34.54-41,34.54-41l36.91,2.92s-19.37,29.42-26.86,42.21c-4.41,7.52-4.18,17.47-3.63,25.15C1666.91,1069.52,1667.18,1073.79,1666.34,1078Z"/><path class="cls-1" d="M1628.13,1083.24c-18.92-4.62-14.42.88-41.34-2.1s-35.06-13-35.88-17c-.74-3.55,12.56-4.8,26.82-6.45l.14.28a75.91,75.91,0,0,0,38.54,12c18.26.44,37.6-4.79,50.21-4.59.29,4.18.56,8.45-.28,12.63C1664,1089.85,1647,1087.87,1628.13,1083.24Z"/><path class="cls-13" d="M1977.86,1109.55c7.33,9.64-82,64.81-73.84,53,1-1.48,2.06-3,3.09-4.47,9.14-13.42,9.15-29.14,12.42-45.75,3.11-15.74-22.6-73.59-22.6-73.59l41.29-5.2s5.4,34.94,10,49c2.73,8.28,14.2,13.74,20.33,18.41C1971.9,1103.54,1975.28,1106.15,1977.86,1109.55Z"/><path class="cls-1" d="M1956.53,1141.7c-16,11.12-8.88,11.39-28.92,29.6s-33,17.69-36.5,15.66c-3.15-1.8,4.71-12.6,12.91-24.39l.3.08a75.82,75.82,0,0,0,34.48-21c12.41-13.4,21.28-31.36,29.78-40.68,3.32,2.55,6.7,5.16,9.28,8.56C1985.19,1119.19,1972.51,1130.57,1956.53,1141.7Z"/><path class="cls-14" d="M1814.91,835.36l37.72,101.49,49.23,132.5s13.36,1.29,26.16-2.39c11.78-3.4,25.3-12.31,25.3-12.31s-13.68-142.28-39.18-224c-6.53-21-13.86-37.92-21.94-47.46C1852.66,736.51,1814.91,835.36,1814.91,835.36Z"/><path class="cls-1" d="M1853.26,674.2c22.26-7.18,84.93-4,148.91,6.8A30.8,30.8,0,0,0,2034,665.87h0l152.9-11.94s50.45,111.89,22.83,183.18c-4.06,10.48-12.12,17.2-25.88,17.42h-2.23s-91,0-120.55,0c-76,0-160.93-52.27-171.91-54.47-18-3.59-25.16,32.36-43.13,70.1s-169,167.16-169,167.16-23.2.23-32.79-3.37c-10.3-3.86-14.08-8.89-14.08-8.89S1797.54,692.17,1853.26,674.2Z"/><path class="cls-5" d="M2024.63,429.16c45.35,42.51,137,130,137.67,129.78,0,0,35.56,24.86,61.66,15.73,43.5-15.21,80.4-76.61,27-151.17-26.65-37.19-49-50.28-41-96.78,4.32-25.23-8.66-115.43-66.72-122.2-4.86-.57-34.08-6.59-55.6-1.46C2032.75,216.12,1948.41,397.75,2024.63,429.16Z"/><path class="cls-13" d="M2075.16,415.72c-.27.09,23.64,15.71,43.13,12.42,18.33-3.08,37.73-27,37.48-27.07-7.4-2.26-14-10.91-9.33-55.52l-3.48.33-58.58,5.62s-.51,18.21-2.17,35.24C2080.81,401.05,2078.59,414.52,2075.16,415.72Z"/><path class="cls-15" d="M2084.38,351.5s-.51,18.21-2.17,35.24c32.23,2.32,52.16-25.31,60.75-40.86Z"/><path class="cls-13" d="M2072,366.55s75.92,8.87,80.72-38.5,17.83-78.12-30.45-85.79-59.53,9.45-65,24.87S2052.4,363,2072,366.55Z"/><path class="cls-5" d="M2096.68,246.68s-19.6,11.19-27.43,21.2c-7.55,9.66-15.62,35.32-14.46,46.62,0,0-12.34-53.88,7.43-73.48C2083.19,220.23,2096.68,246.68,2096.68,246.68Z"/><path class="cls-16" d="M2016.78,541.4c2.29,153.36.63,121.31,17.4,135.87,4,3.5,15.41,5.59,30.37,6.58,47,3.12,129.69-4.63,132.83-13.32,10.85-30.07,3.19-39.41,12.24-85.45,1-4.9,2.11-10.2,3.48-16,7.55-31.62,14.89-42.38-11.88-93.18-24.27-46-50.49-82.77-52.76-81.43-64.05,38-67.84,5.2-67.84,5.2S2015.66,466.59,2016.78,541.4Z"/><path class="cls-1" d="M1852.63,936.85l50.35,138s18.09,5.89,31.27,4c13.42-1.95,20.78-9.28,20.78-9.28s-15.39-157.2-40.89-238.87Z"/><path class="cls-17" d="M2064.55,683.85c47,3.12,129.69-4.63,132.83-13.32,10.85-30.07,3.19-39.41,12.24-85.45l-22-50.22s3.12,57.47-17.85,76.18-85.88,36.11-96.08,51.74C2068.72,670.28,2065.49,677.8,2064.55,683.85Z"/><path class="cls-13" d="M1865.33,648.78s-50.12,13.54-55.28,21.32-15.24,31.56-14.81,37.77,14.11-12.28,19.24-17c3.32-3.06,15.34-4.86,21.25-5.82,14.9-2.42,22.08-9.24,27.67-12.63a15.11,15.11,0,0,1,8.29-1.85Z"/><path class="cls-13" d="M1814.43,683.73s-3,17.06-5.37,20.12-4.5,3.75-4.5,3.75l.35-14.73Z"/><path class="cls-13" d="M1810.05,670.1l-20.38,27.61s2.16,1.29,5.45-.63,10.15-9.47,10.15-9.47Z"/><path class="cls-13" d="M1863.4,672.41s-4.65,11.28-13.93,15.32-16.08,10.12-17.57,7.93,7-13.67,7-13.67Z"/><path class="cls-16" d="M2080.62,399.7l-24.46,81.95s-15.94,112.58-31.42,128.06a64.45,64.45,0,0,1-6.78,8.46c-16.42,17.43-44.64,30.9-72.61,39.94-35.32,11.4-70.24,15.72-80.43,12-3.69-1.35-14.76-16.15-14.76-16.15l62.15-39.3a148.28,148.28,0,0,0,60.54-75.84c14.72-41.56,30-85.5,33.75-99.28C2014.34,411.15,2080.62,399.7,2080.62,399.7Z"/><path class="cls-9" d="M2092.93,319.76l26.56,2.52a6.66,6.66,0,0,0,7.24-6l1.58-16.6a6.66,6.66,0,0,0-6-7.24l-26.56-2.53a6.68,6.68,0,0,0-7.25,6l-1.57,16.59A6.66,6.66,0,0,0,2092.93,319.76Z"/><path class="cls-9" d="M2049.84,315.59l21.26,2a6.12,6.12,0,0,0,6.64-5.49l1.68-17.71a6.11,6.11,0,0,0-5.49-6.64l-21.26-2a6.12,6.12,0,0,0-6.64,5.49L2044.35,309A6.11,6.11,0,0,0,2049.84,315.59Z"/><polygon class="cls-9" points="2065.07 292.9 2122.45 298.35 2121.53 292.37 2065.65 286.84 2065.07 292.9"/><polygon class="cls-9" points="2149.31 304.75 2126.8 294.82 2124.87 306.56 2147.06 309.22 2149.31 304.75"/><path class="cls-18" d="M2097.38,315.62l18.51,1.75a4.63,4.63,0,0,0,5.05-4.17l1.1-11.56a4.65,4.65,0,0,0-4.18-5.05l-18.5-1.76a4.65,4.65,0,0,0-5.05,4.17l-1.1,11.57A4.65,4.65,0,0,0,2097.38,315.62Z"/><path class="cls-19" d="M2053.18,311.34l15.72,1.49a4.36,4.36,0,0,0,4.74-3.91l1.15-12.14a4.34,4.34,0,0,0-3.91-4.73l-15.73-1.5a4.36,4.36,0,0,0-4.73,3.92l-1.16,12.13A4.37,4.37,0,0,0,2053.18,311.34Z"/><polygon class="cls-9" points="2085.69 598.02 2081.27 595.31 2104.21 557.92 2135.45 547.3 2137.12 552.21 2107.65 562.22 2085.69 598.02"/><polygon class="cls-8" points="2037.49 691.02 2089.65 696.18 2105.59 597.93 2042.24 591.66 2037.49 691.02"/><rect class="cls-9" x="2037.16" y="589.34" width="74.57" height="11.17" transform="translate(4080.2 1391.32) rotate(-174.35)"/><path class="cls-13" d="M2140.18,311.49s2.53-10.67,10.25-8.42,6.6,12.92-1.12,16.57S2140.18,311.49,2140.18,311.49Z"/><path class="cls-5" d="M2070.29,240.23s36.66,52.49,67.8,63.91,45.85,4.25,45.85,4.25a128.85,128.85,0,0,1-19.75-48.59,23.17,23.17,0,0,0-15.15-18C2126.72,234,2083.68,222.09,2070.29,240.23Z"/><path class="cls-13" d="M2060.72,651.12s-14,12.08-18,13-6.26.08-6.26.08l10.21-12Z"/><path class="cls-13" d="M2066.27,636.88,2030.8,646s.92,2.52,4.94,3.14,14.78-1,14.78-1Z"/><path class="cls-13" d="M2126.39,656.43s-50.62-22.52-60.12-19.55-33.88,15.88-37.7,21.32,20-.68,27.38-1.14c4.82-.3,16,6.3,21.53,9.48,23.33,13.4,39.53,12.21,39.53,12.21Z"/><path class="cls-16" d="M2148.46,394.5s71.63,13.45,84.9,33.3c28.95,43.31,90.58,222.78,56.06,246.85-38.86,27.1-176.89,7.09-176.89,7.09s-4.59-21.47,1.8-31.86,110.24-27.16,115-32-47.35-74.1-41.79-87.37C2205.36,488.07,2148.46,394.5,2148.46,394.5Z"/><path class="cls-17" d="M2018,618.17c-16.42,17.43-44.64,30.9-72.61,39.94-.16-7.39,11.08-18.54,33.14-26.62,30.72-11.23,30.33-76,38.28-76.84S2018,618.17,2018,618.17Z"/><path class="cls-12" d="M762.4,696.42c-12.28,23.76-36.88,24-55.92,19.68-10.12-1.23-20.39-4.64-29.67-8.71-.11,1.52-.24,3-.35,4.45-.47,5.92-.91,11.31-1.31,16.08,13.39,5.71,24.67,14.78,31,27.44,6.74,13.44,6.16,52.33,1.93,100.93H382.62c-5.27-53-6.59-96.13.59-110.42,6.14-12.23,16.12-20.48,28-25.37-31.46-10.1-54.91-26.83-66.55-38.76v-139c5.77-31.84,13.76-61.85,23.48-80,8.59-16,17.78-27.22,26.31-35a77.21,77.21,0,0,1,22.47-14.66s29.35-13.1,78-13.94c3.33-.06,6.73-.1,10.16-.13v0c4.25-9.62,10.19-19.31,6.85-55.16a39.71,39.71,0,0,1-3.79-4.26l-.16.15c-.86.69-12.16,5.7-38.07-24.78H611.32c.74,17.1-1.48,30.94-9.09,34.21a158.22,158.22,0,0,1-18.68,5.09c.29,4.38.86,12.32,1.9,23.29.08.84.79,10.68,1.43,19.49a17.39,17.39,0,0,1-.3,4.85c13.62,1.12,34.87,3.52,55.49,8.52,19.48,4.48,35.58,10.52,45.61,18.53a8.22,8.22,0,0,1,1.07,1.06c1,.75,1.89,1.52,2.76,2.31C722.94,460.77,784.13,654.4,762.4,696.42Z"/><path class="cls-20" d="M746.29,1091.05s-28.75,50.93-19.91,60.22c0,0,35.16,21.94,135.08,35.43,7.1,1,14.28-16.16-6.61-27.87s-54.77-25.2-50.72-56.56S746.29,1091.05,746.29,1091.05Z"/><polygon class="cls-11" points="705.31 827.88 450.35 845.9 450.35 724.97 705.31 724.97 705.31 827.88"/><path class="cls-11" d="M805.65,1118.53s-68.41,2.2-67.47-24.25c6.62-185,55.71-234,55.71-234l-47.23-1.33h0l-43.72-1.21L620,855.41l15.75-47.1,7.06-21.16,19.26-57.64,76.7,1.16s150.37,9.59,174.85,56.86C942.4,843.14,805.65,1118.53,805.65,1118.53Z"/><g class="cls-21"><path class="cls-2" d="M746.66,858.94l-43.73-1.21s-51-28.22-67.2-49.42c-7.35-9.56-30.42-17.58-15.75-21,3.9-.92,43.25,6,49.24,7.49C744.8,813.71,746.66,858.94,746.66,858.94Z"/></g><path class="cls-22" d="M674.85,1149s-4.7,54.42,6.81,60.09c0,0,85.81,14.25,139.18-.29,7.81-2.13,4.28-22.15-19.36-25.92s-68.31-15-75.34-45.82S674.85,1149,674.85,1149Z"/><path class="cls-11" d="M716.3,837.26c-6.94-43.83-132.6-71.9-173.23-82-9.12-2.26-14.66-3.44-14.66-3.44l-76.68-25.48c-17.17,43.46-17.12,112.59,0,133.92s129,21.37,156.11,31.32S580.22,934,665.5,1139.18c11.29,27.19,65.26,6.94,65.26,6.94S724.79,890.91,716.3,837.26Z"/><path class="cls-16" d="M605.42,380s88.13,2.89,119.55,31.35,92.62,222.1,70.9,264.11S714,685.93,714,685.93l-23.46-48.1-3.28-145.54Z"/><path class="cls-16" d="M711,677c-.37,4.91-.74,9.58-1.09,13.94-1.91,24-3.33,39.28-3.33,39.28s-26.55,31.25-135.08,46c-106.65,14.5-143.18,6.32-143.18,6.32l2.13-37.73,11-195.09,8.89-157.55s29.34-13.09,78-13.94c68.35-1.17,161,4.39,192.78,29.79C741.08,424,718,585.31,711,677Z"/><path class="cls-13" d="M620.35,376.12C621,385,615,393,606.56,394.35c-35.5,5.81-68.65-14.85-68-16.26,4.72-10.66,11.52-21.4,5.41-67.79-.08-.61,4.35.25,11,1.89,19.92,4.89,59.95,16.67,61.72,17.2h.07s.49,9.75,2.14,27.24C619,357.47,619.7,367.3,620.35,376.12Z"/><path class="cls-15" d="M618.91,356.63c-29.73,7.07-74.1-38.46-74.1-38.46a46.62,46.62,0,0,1,10.17-6c19.92,4.89,59.95,16.67,61.72,17.2h.07S617.26,339.14,618.91,356.63Z"/><path class="cls-13" d="M635.69,328.25a168.71,168.71,0,0,1-31.14,7.26C579,339,545.49,336.93,535,306.05c-17.76-52-40.44-83.12,11.81-104.34,28-11.36,45.86-12,58-7.63,10.56,3.74,16.79,11.22,21.5,18.61C636.41,228.6,656.82,319.16,635.69,328.25Z"/><path class="cls-14" d="M630.23,181.31c11.8,2.87,17.11,21.46,5.87,29.19C616,224.36,591.35,218.92,582.28,223c-13,5.77-15.32,27.57-15.56,34.49s-1.76,11-19.41,6.84a13.67,13.67,0,0,0-9.77,1.69c-7,4.76,6,25.87,8.84,30.43,0,0,4.06,15.08-5,22.42-1.09.87-18.79,8.61-61.45-56.67-6.7-10.24-13.1-33.33-2.75-55.55s42.33-49.75,80.71-49.75C588.31,156.84,605.25,175.24,630.23,181.31Z"/><path class="cls-9" d="M636.09,294.71s1.09,6.72-14.55,12.09c0,0-13.13,4.51-15.53-2.39C606,304.41,616.44,294.48,636.09,294.71Z"/><path class="cls-9" d="M605.42,278.72,574.48,288a8.08,8.08,0,0,1-10-5.41l-5.77-19.33a8.07,8.07,0,0,1,5.4-10L595,244a8.06,8.06,0,0,1,10,5.41l5.78,19.33A8.06,8.06,0,0,1,605.42,278.72Z"/><path class="cls-9" d="M656.44,263.48l-26.26,7.85a7.56,7.56,0,0,1-9.39-5.07L614.73,246a7.57,7.57,0,0,1,5.06-9.39l26.26-7.84a7.57,7.57,0,0,1,9.39,5.06l6.07,20.31A7.57,7.57,0,0,1,656.44,263.48Z"/><rect class="cls-9" x="565.67" y="242.48" width="69.77" height="7.38" transform="translate(-45.34 182.23) rotate(-16.64)"/><path class="cls-18" d="M599.16,274.86l-21.57,6.44a5.62,5.62,0,0,1-7-3.77l-4-13.47a5.62,5.62,0,0,1,3.77-7l21.56-6.44a5.63,5.63,0,0,1,7,3.77l4,13.47A5.63,5.63,0,0,1,599.16,274.86Z"/><path class="cls-19" d="M651.27,259.29l-19.42,5.8a5.39,5.39,0,0,1-6.69-3.62L621,247.56a5.4,5.4,0,0,1,3.62-6.69l19.41-5.8a5.4,5.4,0,0,1,6.7,3.61l4.15,13.91A5.4,5.4,0,0,1,651.27,259.29Z"/><path class="cls-23" d="M512.79,742.17l-21.54,21.72c-26.13-3.47-46-10.13-60.79-19.08l11-195.09c13.93-21.63,25.44-35.8,25.44-35.8C478,619.42,512.79,742.17,512.79,742.17Z"/><path class="cls-23" d="M711,677c-.37,4.91-.74,9.57-1.09,13.94L656.7,707V637.59l22.78,24.35Z"/><path class="cls-9" d="M558.78,258.36,536,268s-.77.63-.5,4.23a30.38,30.38,0,0,0,1.18,4.75l24-7.31V258.36Z"/><path class="cls-13" d="M555.89,274.63c-.56-.56-3.56-16.05-18.35-10.46s-1.5,25.25,9.17,27.31S555.89,274.63,555.89,274.63Z"/><path class="cls-23" d="M687.62,623.7s37.32-13.18,23.09-60.69c0,0-8.33,30.31-45,30.35S687.62,623.7,687.62,623.7Z"/><path class="cls-24" d="M663.73,538.46a18.55,18.55,0,0,0-16.19.26c-1.08-1.85-2.14-3.73-3.19-5.58a12.28,12.28,0,0,0-7.9,14.85c.95,3,3,5.54,3.89,8.56s-.43,7.12-3.56,7.52c-3.73,0-4.81-5-5.15-8.73s-3.35-8.51-6.58-6.66c.35-6.75.67-13.5,1-20.24a20.39,20.39,0,0,0-18.71,2,17.42,17.42,0,0,0,1.18-12.54c-3.85-1.84-7.8-3.71-12-4s-8.92,1.36-11,5.09-.22,9.4,4,10.22c-5.17,1.18-10.88,2.73-13.71,7.24s.52,12.29,5.69,11.1l-13.06,7.66a13,13,0,0,1,6.79,9.25,11.92,11.92,0,0,0-14.68,6.64,22.48,22.48,0,0,1-.09-17.38c1.77-4.25,4.12-10.56-.17-12.27a7.07,7.07,0,0,0-4.05,0,91,91,0,0,0-24.88,9.34c-4,18,11,35.92,28.65,41s36.65.41,53.79-6.25,37.26-11.86,53.6-20.31c17.66-9.12-.52-24.47-4.05-16.09.21-1,1.85-10.15.45-10.82Z"/><polygon class="cls-25" points="689.67 562.46 520.83 562.46 520.83 791.7 689.67 791.7 689.67 562.46 689.67 562.46"/><path class="cls-24" d="M563.8,511.77c0-.73.09-1.47.13-2.2,3.9-1.79,8.49-2.59,12.46-.95s6.81,6.26,5.45,10.31-7.65,5.71-10.19,2.28c2.6,3.91,3.45,9.3,1,13.29s-8.71,5.47-12.08,2.22-2.52-8.56-1.48-13c-3.91,1.3-8.41,1.21-11.86-1s-5.46-6.83-4-10.65c1.94-4.9,8.07-6.4,13.3-6.64,2.81-.11,6.69,1.06,6.26,3.84l1,2.54Z"/><path class="cls-24" d="M626.52,516.45c-.33.65-.67,1.29-1,2-4.27.13-8.81-.95-11.81-4s-3.82-8.43-1-11.64,9.27-2.26,10.28,1.9c-.88-4.62.48-9.9,4.31-12.62s10.16-1.61,12,2.72-1.06,8.84-3.75,12.55c4.1.34,8.21,2.2,10.52,5.58s2.33,8.43-.56,11.34c-3.69,3.76-9.92,2.74-14.83.89-2.63-1-5.74-3.58-4.25-6l.09-2.72Z"/><rect class="cls-26" x="510.93" y="562.46" width="186.93" height="16.1"/><rect class="cls-9" x="542.74" y="578.56" width="26.39" height="213.14"/><rect class="cls-9" x="590.74" y="578.56" width="26.39" height="213.14"/><rect class="cls-9" x="638.74" y="578.56" width="26.39" height="213.14"/><path class="cls-13" d="M483.21,751.69s25.21,40.19,38.43,48c9,5.35,49.75,4.38,53.12-5.54,2.35-7-21.62-5.88-25-7.78-6.31-3.49-8.05-10.63-6.84-13.19s20.45,16.52,20.53,9.74-16.82-26.32-21.56-29.62-24-5.23-29.06-11.16S483.21,751.69,483.21,751.69Z"/><path class="cls-16" d="M461.82,389s-33.1,2.13-60.24,52.85-36.26,134.36-25.52,201.66c3.26,20.39,25.31,69.52,115.18,120.37,0,0,25.58-14.68,21.54-21.71,0,0-52.55-94.29-53-137.82-.53-56.1,6.87-83.45,9.62-111.78S461.82,389,461.82,389Z"/><path class="cls-13" d="M690.92,653a24.89,24.89,0,0,0,.39-21.2c-3.84-8.63-9.47-20.63-13-25-5.71-7.18-12.45-27.5-17.29-24.25s1.78,17.73-2.26,22.46-44.8-10.76-48.23-5.2-4.16,24.09,10.29,31.63S671,657.89,679.48,662C684,664.1,688,658.75,690.92,653Z"/><path class="cls-16" d="M687.62,623.7s-14.36,27.23-11.74,43c0,0,49.36,37.11,84.64,27.3s-27.71-70.33-27.71-70.33Z"/><path class="cls-12" d="M1449.66,629.43c1.14-1.69,1.73-2.74,1.73-2.74-17.13-50.63-63.75-69.72-63.75-69.72-5.72-4.36-21.94-8-41.9-10,.1-8.57-.74-22.77-1.5-33.68,10.67-7.11,19.19-18.06,24.15-31.23,10.46-7.83,13.82-20.66,19.25-32.56,8.53-18.72,3.82-77.52-14.45-85.74s-35.66-1.89-35.66-1.89c2.25-3.74,8.55-5.43,8.55-5.43-14.29-6.18-49.74,3.93-79.17,24.35a0,0,0,0,1,0,0c-16.3,11.3-21.82,29.1-23.06,45.27a129.17,129.17,0,0,0,1.94,31.73c2.61,15,20.27,31.69,20.27,31.69h0a62.42,62.42,0,0,0,22.76,25c-1,9.67-2.27,23-2.27,31.25-17.46,1.14-33.2,3.84-43.38,8.49-3.28,1-46.19,15.5-56,80.47,0,0,1.8,6.08,9.68,12.59-5.54,31.3-9.54,71.44,1.49,90.05,7.07,11.95,20.74,21.7,35.3,29.29l-.24,24.41c-24.74,12.11-29.82,37.63-26.24,65.24h233.42c14.93-38.7,19.82-81.55-21.48-96.74l-1.41-.48c0-31.57,0-72.7-.2-100.74.86-.38,1.7-.79,2.53-1.2l-.5,3.26S1465.48,654,1449.66,629.43Zm-215.58,91a13.31,13.31,0,0,1-.69-3.49c-.37-8.4.26-24.46,1.11-40Z"/><path class="cls-27" d="M1412.7,449.49c-8.54,18.73-11.92,39.76-46,40s-75.59,0-75.59,0-17.66-16.64-20.28-31.69a129.26,129.26,0,0,1-1.93-31.73c1.23-16.17,6.75-34,23-45.27a0,0,0,0,0,0,0c29.44-20.42,64.88-30.53,79.17-24.35,0,0-6.3,1.69-8.55,5.43,0,0,17.4-6.34,35.66,1.89S1421.24,430.77,1412.7,449.49Z"/><path class="cls-2" d="M1281.76,743.29s-32.25,79.46-39.46,127.86c-1.74,11.75,9.23,9.13,17,9.13H1418c8.71,0,40.66-9.87,39.55-23.25-3.93-47.13-23.78-90.65-36.19-109.29C1402.82,720,1281.76,743.29,1281.76,743.29Z"/><path class="cls-16" d="M1259.91,641.67s-24.72-65.87,3.37-84.7,132.85-12.63,149.42,0,28.09,56.4,29.21,71,.81,125.85.81,164c0,0-72.91,47.33-184.31,4.22Z"/><path class="cls-13" d="M1315.27,502.47s-5.59,44.65-2.93,50.38c6.21,13.4,51.49,13.11,57.74,1.33,2.43-4.57-1.94-56.13-1.94-56.13Z"/><path class="cls-28" d="M1313.71,513.76s9.19,16.57,25.32,16.68c22.93.16,31-20.68,31-20.68Z"/><ellipse class="cls-13" cx="1340.65" cy="455.38" rx="57.6" ry="66.76"/><rect class="cls-9" x="1286.6" y="432.89" width="50.67" height="37.99" rx="8.43" ry="8.43"/><rect class="cls-9" x="1348.01" y="432.89" width="44.49" height="37.99" rx="7.9" ry="7.9"/><rect class="cls-9" x="1297.19" y="432.89" width="73.06" height="7.72"/><rect class="cls-18" x="1294.28" y="438.65" width="35.31" height="26.47" rx="5.87" ry="5.87"/><rect class="cls-19" x="1353.82" y="438.65" width="32.49" height="26.47" rx="5.63" ry="5.63"/><path class="cls-9" d="M1319.83,491.22c-1.37.23,3.16,10.75,20.89,10.77,14.68,0,17.87-9.88,17.87-9.88S1346.1,486.84,1319.83,491.22Z"/><path class="cls-24" d="M1389.94,633.77a15.07,15.07,0,0,0-13.11.21c-.87-1.5-1.73-3-2.58-4.52a9.94,9.94,0,0,0-6.39,12c.76,2.43,2.46,4.49,3.14,6.93s-.35,5.76-2.88,6.1c-3,0-3.9-4.07-4.17-7.07s-2.71-6.9-5.33-5.4c.28-5.46.54-10.93.82-16.39a16.53,16.53,0,0,0-15.16,1.65,14.09,14.09,0,0,0,1-10.16c-3.13-1.48-6.32-3-9.76-3.23s-7.23,1.1-8.91,4.12-.17,7.62,3.21,8.28c-4.19,1-8.81,2.22-11.1,5.87s.42,9.95,4.61,9l-10.58,6.2a10.52,10.52,0,0,1,5.5,7.49,9.66,9.66,0,0,0-11.89,5.37,18.21,18.21,0,0,1-.07-14.07c1.43-3.44,3.33-8.55-.14-9.93a5.73,5.73,0,0,0-3.28,0,73.52,73.52,0,0,0-20.15,7.56c-3.21,14.55,8.9,29.09,23.2,33.24s29.68.34,43.56-5.06,30.17-9.6,43.41-16.45c14.3-7.38-.42-19.81-3.28-13,.17-.8,1.5-8.22.36-8.77Z"/><polygon class="cls-19" points="1410.95 653.21 1274.22 653.21 1274.22 838.86 1410.95 838.86 1410.95 653.21 1410.95 653.21"/><path class="cls-24" d="M1309,612.16c0-.59.07-1.19.1-1.78,3.16-1.45,6.88-2.1,10.09-.77s5.52,5.06,4.42,8.35-6.2,4.62-8.26,1.85c2.12,3.16,2.8,7.52.79,10.75s-7.06,4.44-9.78,1.8-2-6.93-1.2-10.55a11.34,11.34,0,0,1-9.61-.82c-2.79-1.79-4.41-5.53-3.19-8.62,1.57-4,6.53-5.19,10.77-5.38,2.27-.09,5.41.86,5.06,3.11l.81,2.06Z"/><path class="cls-24" d="M1359.81,616l-.81,1.59c-3.45.1-7.14-.77-9.56-3.23s-3.09-6.83-.81-9.43,7.51-1.83,8.33,1.54c-.72-3.74.38-8,3.49-10.22s8.23-1.31,9.71,2.2-.86,7.16-3,10.16a11.38,11.38,0,0,1,8.52,4.53c1.87,2.74,1.89,6.82-.45,9.18-3,3-8,2.22-12,.71-2.13-.78-4.65-2.89-3.44-4.83l.07-2.2Z"/><rect class="cls-26" x="1266.2" y="653.21" width="151.38" height="13.04"/><rect class="cls-9" x="1291.97" y="666.25" width="21.37" height="172.61"/><rect class="cls-9" x="1330.84" y="666.25" width="21.37" height="172.61"/><rect class="cls-9" x="1369.71" y="666.25" width="21.37" height="172.61"/><path class="cls-29" d="M1305.73,1024.14s61.17-225.48,99.07-242.35,64,10.92,60,49.19-119.29,204.85-119.29,204.85Z"/><path class="cls-30" d="M1307.21,981.25a144.36,144.36,0,0,0,58.28,22.84l-42,81.17-29.66-36.2Z"/><path class="cls-2" d="M1293.79,1049.06s-19,23.16-23.41,32.86,15.67,21,28.54,27,22.28,1,27.09-12.26,7.61-31.09,7.61-31.09Z"/><path class="cls-2" d="M1297.37,1053.43s.79-9.81,8.56-9,20.3,6.85,21.5,11.86-1.25,10.48-1.25,10.48Z"/><path class="cls-24" d="M1320.23,1075.87c-13.21-12.42-26.07-13.5-26.2-13.5l.08-1.13c.13,0,13.39,1.12,26.89,13.81Z"/><path class="cls-24" d="M1317.18,1082.67c-13.19-12.4-26.08-13.49-26.2-13.5l.08-1.12c.13,0,13.39,1.12,26.89,13.8Z"/><path class="cls-31" d="M1340.39,895s32.16-161.76,103.77-135.43c81.73,30.05-17.39,168.46-17.39,168.46S1368.63,927.73,1340.39,895Z"/><path class="cls-13" d="M1389.89,1059.16s-55-227.06-92.44-245-64.23,9.17-61.33,47.53,113.67,208,113.67,208Z"/><path class="cls-11" d="M1358.76,929.12c.54,0-28-173-100-138.21-68.69,33.2,12.8,168.88,12.8,168.88S1329.63,961.08,1358.76,929.12Z"/><path class="cls-13" d="M1231.27,604.59s-27.33,99.9-7.87,132.76,89,49.25,89,49.25l2.88-17.45s-56-32.79-56.84-52.27,3.7-80.36,3.7-80.36Z"/><path class="cls-13" d="M1454.72,594.92s42.2,84.07,80.44,94.62c12.87,3.55,74.52,1.12,74.52,1.12l2.94,19.72s-90.77,27.38-114.36,10.17-53.68-60.17-53.68-60.17Z"/><path class="cls-16" d="M1268.46,554.18s-46,13-56.23,80.53c0,0,6.86,23.32,52.88,27.51Z"/><path class="cls-16" d="M1412.7,557s46.63,19.08,63.76,69.72c0,0-18.92,33-48.78,35.53l2.44-20.92Z"/><path class="cls-13" d="M1315.3,747.73s10-6.51,17.07-6,17.68-2.5,17.46,0-11.72,3.7-9.44,6,23.27,1.74,22.1,5.71c-3.73,12.66-10,9.69-22.1,11.75s-28,0-28,0Z"/><path class="cls-13" d="M1623,715.06s15-6.07,20.89-4.39,7,11.8,0,15.73-10.39,7.86-30.61,5.34Z"/><path class="cls-24" d="M1312.9,1011.3a144.33,144.33,0,0,0,58-23.5l25.31,87.84-46.43-5.88-18.84-29Z"/><path class="cls-2" d="M1349.79,1069.76s2.18,29.85,5.61,40,25.84,4.49,39.33,0,16.85-14.61,11.23-27.53-15.86-27.8-15.86-27.8Z"/><path class="cls-2" d="M1355.4,1070.47s-6.18-7.66,0-12.43,19.46-9,23.78-6.18,6.29,8.47,6.29,8.47Z"/><path class="cls-24" d="M1359.12,1079.26l-.71-.87c.1-.09,10.49-8.4,29-8.48V1071C1369.3,1071.11,1359.22,1079.17,1359.12,1079.26Z"/><path class="cls-24" d="M1361.58,1086.29l-.71-.87c.1-.08,10.49-8.39,29-8.47v1.12C1371.76,1078.15,1361.68,1086.21,1361.58,1086.29Z"/><polygon class="cls-9" points="1636.7 640.45 1631.91 638.82 1648.39 590.44 1671.89 577.92 1674.27 582.38 1652.54 593.96 1636.7 640.45"/><path class="cls-10" d="M1604.32,735.67h40a5.9,5.9,0,0,0,5.88-5.52l5.68-91.41h-62.11l4.66,91.34A5.89,5.89,0,0,0,1604.32,735.67Z"/><rect class="cls-9" x="1588.99" y="633.36" width="72.76" height="10.9" rx="3.79" ry="3.79" transform="translate(3250.74 1277.62) rotate(180)"/><path class="cls-13" d="M1654.72,686.51s-16.85-1.86-14.32,9.88,11.79,18.2,14.32,10.9S1658.91,686.55,1654.72,686.51Z"/><path class="cls-27" d="M1403,401.93s-9.46,18.82-14.58,16.2-6.68-.47-18.39,9.64-50.36-5.9-60.47-10.11-19.94,11.24-22.41,12.81c0,0-10.51-2.33-18.28-4.41,1.23-16.17,6.75-34,23-45.27a0,0,0,0,0,0,0c26.35-3.28,67.4-7.53,70.14-8.81C1366.12,370.1,1403,401.93,1403,401.93Z"/><rect class="cls-2" x="252.59" y="677.11" width="121.39" height="75.42" rx="16.08" ry="16.08"/><rect class="cls-2" x="252.59" y="707.94" width="100.45" height="325.63"/><rect class="cls-11" x="921.29" y="673.73" width="125.5" height="60.39" rx="14.63" ry="14.63"/><rect class="cls-11" x="1487.13" y="732.54" width="125.5" height="78.42" rx="16.67" ry="16.67" transform="translate(3099.75 1543.49) rotate(180)"/><rect class="cls-11" x="1613.24" y="732.54" width="125.5" height="78.42" rx="16.67" ry="16.67" transform="translate(3351.98 1543.49) rotate(180)"/><path class="cls-16" d="M1321.84,213.76a11.79,11.79,0,1,1,11.78,11.79A11.78,11.78,0,0,1,1321.84,213.76Z"/><path class="cls-9" d="M2066.7,339.68s1,6.16,8.41,7.8,15.18-5,15.18-5S2078.54,338,2066.7,339.68Z"/></g></g></svg>