<svg width="14" height="14" viewBox="0 0 14 14" fill="none" xmlns="http://www.w3.org/2000/svg">
<path d="M13.1143 12.0628L10.5966 9.55248C11.4089 8.51759 11.8497 7.23964 11.848 5.92402C11.848 4.75236 11.5006 3.60701 10.8497 2.63281C10.1987 1.65861 9.27351 0.899316 8.19104 0.450942C7.10857 0.00256676 5.91745 -0.114749 4.7683 0.113831C3.61915 0.34241 2.5636 0.906618 1.73511 1.73511C0.906618 2.5636 0.34241 3.61915 0.113831 4.7683C-0.114749 5.91745 0.00256676 7.10857 0.450942 8.19104C0.899316 9.27351 1.65861 10.1987 2.63281 10.8497C3.60701 11.5006 4.75236 11.848 5.92402 11.848C7.23964 11.8497 8.51759 11.4089 9.55248 10.5966L12.0628 13.1143C12.1316 13.1837 12.2135 13.2388 12.3038 13.2764C12.394 13.314 12.4908 13.3333 12.5885 13.3333C12.6863 13.3333 12.7831 13.314 12.8733 13.2764C12.9636 13.2388 13.0455 13.1837 13.1143 13.1143C13.1837 13.0455 13.2388 12.9636 13.2764 12.8733C13.314 12.7831 13.3333 12.6863 13.3333 12.5885C13.3333 12.4908 13.314 12.394 13.2764 12.3038C13.2388 12.2135 13.1837 12.1316 13.1143 12.0628ZM1.48101 5.92402C1.48101 5.04527 1.74158 4.18626 2.22979 3.45561C2.71799 2.72496 3.4119 2.15549 4.22375 1.81921C5.03561 1.48293 5.92895 1.39494 6.79081 1.56638C7.65267 1.73781 8.44434 2.16097 9.0657 2.78234C9.68707 3.4037 10.1102 4.19537 10.2817 5.05723C10.4531 5.91909 10.3651 6.81243 10.0288 7.62429C9.69255 8.43614 9.12307 9.13004 8.39242 9.61825C7.66178 10.1065 6.80276 10.367 5.92402 10.367C4.74566 10.367 3.61556 9.89893 2.78234 9.0657C1.94911 8.23248 1.48101 7.10238 1.48101 5.92402Z" fill="black"/>
</svg>
